# xmcd
#
# Track frame offsets:
#	150
#	14080
#	28120
#	44050
#	58577
#	73967
#	86657
#	105610
#	119085
#	139495
#	155237
#	171490
#	189985
#	202972
#	216635
#	233347
#	252032
#	269095
#	282650
#	299040
#
# Disc length: 4215 seconds
#
# Revision: 3
# Processed by: cddbd v1.5.2PL0 Copyright (c) Steve Scherf et al.
# Submitted via: audiograbber 1.83.01
#
DISCID=56107514
DTITLE=Music Maestro Country Club Pack 2 - MM Country Club Pack Disc 2
DYEAR=1900
DGENRE=Karaoke
TTITLE0=Trisha Yearwood - Perfect Love
TTITLE1=Brooks and Dunn - He's Got You
TTITLE2=Martina McBride - Independence Day
TTITLE3=Martina McBride - Valentine
TTITLE4=LeAnn Rimes - Honestly
TTITLE5=ElvisPresley - I Want You I Need You I Love You
TTITLE6=Lonestar - You Walked In
TTITLE7=Wynonna Judd - When Love Starts Talkin
TTITLE8=Alan Jackson - Between The Devil and Me
TTITLE9=Elvlis Presley - Mystery Train
TTITLE10=Tracy Lawrence - How A Cowgirl Says Goodbye
TTITLE11=Sawyer Brown - This Night Won't Last Forever
TTITLE12=Shelly West - Jose Cuervo
TTITLE13=Hank  Williams Jr, - There's A Tear In My Beer
TTITLE14=The Charlie Daniels Band - The Devil Went Down To Georgia
TTITLE15=Travis Tritt and Lari White - Helpin Me Get Over You
TTITLE16=LeAnn Rimes - You Light Up My Life
TTITLE17=Clay Walker - Then What
TTITLE18=Pam Tillis - Land Of The Living
TTITLE19=Shania Twain - You're Still The One
EXTD=
EXTT0=
EXTT1=
EXTT2=
EXTT3=
EXTT4=
EXTT5=
EXTT6=
EXTT7=
EXTT8=
EXTT9=
EXTT10=
EXTT11=
EXTT12=
EXTT13=
EXTT14=
EXTT15=
EXTT16=
EXTT17=
EXTT18=
EXTT19=
PLAYORDER=
